<?xml version="1.0" encoding="iso-8859-1"?>
<!-- Generator: Adobe Illustrator 19.0.0, SVG Export Plug-In . SVG Version: 6.00 Build 0)  -->
<svg version="1.1" id="Layer_1" xmlns="http://www.w3.org/2000/svg" xmlns:xlink="http://www.w3.org/1999/xlink" x="0px" y="0px"
	 viewBox="0 0 488 488" style="enable-background:new 0 0 488 488;" xml:space="preserve">
<g transform="translate(0 -540.36)">
	<g>
		<g>
			<path d="M117,837.56c-12.2,0-23.7,5-32.4,14c-8.6,9-13.4,20.7-13.4,33.1c0,25.5,20.5,46.2,45.8,46.2s45.8-20.7,45.8-46.2
				c0-12.4-4.8-24.2-13.4-33.1C140.7,842.56,129.2,837.56,117,837.56z M117,910.86c-14.2,0-25.8-11.7-25.8-26.2
				c0-14.7,11.8-27.1,25.8-27.1s25.8,12.4,25.8,27.1C142.8,899.06,131.2,910.86,117,910.86z"/>
			<path d="M371,837.56c-24.8,0-45,21.1-45,47.1c0,25.9,19.8,46.2,45,46.2s45.8-20.7,45.8-46.2c0-12.4-4.8-24.2-13.4-33.1
				C394.7,842.56,383.2,837.56,371,837.56z M371,910.86c-14,0-25-11.5-25-26.2c0-15,11.2-27.1,25-27.1c14,0,25.8,12.4,25.8,27.1
				C396.8,899.06,385.2,910.86,371,910.86z"/>
			<path d="M294.5,869.56H193.6c-5.5,0-10,4.5-10,10s4.5,10,10,10h100.9c5.5,0,10-4.5,10-10S300,869.56,294.5,869.56z"/>
			<path d="M131.5,763.26v-63.2c0-5.5-4.5-10-10-10h-61c-5.5,0-10,4.5-10,10v63.2c0,5.5,4.5,10,10,10h61
				C127,773.26,131.5,768.86,131.5,763.26z M111.5,753.26h-41v-43.2h41V753.26z"/>
			<path d="M243.8,763.26v-63.2c0-5.5-4.5-10-10-10h-61c-5.5,0-10,4.5-10,10v63.2c0,5.5,4.5,10,10,10h61
				C239.3,773.26,243.8,768.86,243.8,763.26z M223.8,753.26h-41v-43.2h41V753.26z"/>
			<path d="M345.3,773.26c5.6,0,10-4.4,10-10v-63.2c0-5.5-4.5-10-10-10h-61c-5.5,0-10,4.5-10,10v63.2c0,5.5,4.5,10,10,10H345.3z
				 M294.3,710.06h41v43.2h-41V710.06z"/>
			<path d="M478,637.86L478,637.86l-468,0c-5.5,0-10,4.5-10,10v231.7c0,5.5,4.5,10,10,10h40.7c5.5,0,10-4.5,10-10s-4.5-10-10-10H20
				v-43.2h9.5c5.5,0,10-4.5,10-10s-4.5-10-10-10H20v-148.5h448v22.1h-71.4c-3.1,0-6,1.4-7.9,3.8c-1.9,2.4-2.6,5.6-1.9,8.5l20.3,84.3
				c1.1,4.5,5.1,7.7,9.7,7.7h51v22.1h-10.3c-5.5,0-10,4.5-10,10s4.5,10,10,10H468v43.2h-30.7c-5.5,0-10,4.5-10,10s4.5,10,10,10H478
				c5.5,0,10-4.5,10-10v-231.7C488,642.36,483.5,637.86,478,637.86z M468,764.26h-43.2l-15.5-64.3H468V764.26z"/>
		</g>
	</g>
</g>
<g>
</g>
<g>
</g>
<g>
</g>
<g>
</g>
<g>
</g>
<g>
</g>
<g>
</g>
<g>
</g>
<g>
</g>
<g>
</g>
<g>
</g>
<g>
</g>
<g>
</g>
<g>
</g>
<g>
</g>
</svg>
