<?xml version="1.0" encoding="iso-8859-1"?>
<!-- Generator: Adobe Illustrator 19.0.0, SVG Export Plug-In . SVG Version: 6.00 Build 0)  -->
<svg version="1.1" id="Layer_1" xmlns="http://www.w3.org/2000/svg" xmlns:xlink="http://www.w3.org/1999/xlink" x="0px" y="0px"
	 viewBox="0 0 487.925 487.925" style="enable-background:new 0 0 487.925 487.925;" xml:space="preserve">
<g transform="translate(0 -540.36)">
	<g>
		<g>
			<path d="M485,920.352c-3.9-3.9-10.2-3.9-14.1,0l-58.3,58.7H10c-5.5,0-10,4.5-10,10s4.5,10,10,10h406.8v0c2.6,0,5.2-1,7-3
				l61.2-61.6C488.9,930.552,488.9,924.252,485,920.352z"/>
			<path d="M100.9,846.251c1.7,2.1,4.2,3.5,6.9,3.7c0.3,0,0.6,0,0.9,0c2.4,0,4.8-0.9,6.6-2.5l184.3-162.5l20.6,82.9
				c1.1,4.6,5.2,7.6,9.7,7.6c0.8,0,1.6-0.1,2.4-0.3c5.4-1.3,8.6-6.8,7.3-12.1l-23.1-93l94.1-83c4.1-3.6,4.5-9.9,0.8-14.1h0
				c-3.7-4.1-10-4.5-14.1-0.9l-94.8,83.6l-106.8-11.5c-5.5-0.6-10.4,3.4-11,8.9c-0.6,5.5,3.4,10.4,8.9,11l88.7,9.6L110,825.552
				l-42.8-53.4c-3.5-4.3-9.7-5-14.1-1.6c-4.3,3.5-5,9.7-1.6,14.1L100.9,846.251z"/>
		</g>
	</g>
</g>
<g>
</g>
<g>
</g>
<g>
</g>
<g>
</g>
<g>
</g>
<g>
</g>
<g>
</g>
<g>
</g>
<g>
</g>
<g>
</g>
<g>
</g>
<g>
</g>
<g>
</g>
<g>
</g>
<g>
</g>
</svg>
